<?xml version="1.0" encoding="UTF-8" standalone="no"?>
<!DOCTYPE svg PUBLIC "-//W3C//DTD SVG 1.1//EN"
 "http://www.w3.org/Graphics/SVG/1.1/DTD/svg11.dtd">
<!-- Generated by graphviz version 2.34.0 (20140211.1544)
 -->
<!-- Title: conversions Pages: 1 -->
<svg width="387pt" height="224pt"
 viewBox="0.00 0.00 387.28 224.00" xmlns="http://www.w3.org/2000/svg" xmlns:xlink="http://www.w3.org/1999/xlink">
<g id="graph0" class="graph" transform="scale(1 1) rotate(0) translate(4 220)">
<title>conversions</title>
<polygon fill="white" stroke="white" points="-4,4 -4,-220 383.276,-220 383.276,4 -4,4"/>
<!-- gson -->
<g id="node1" class="node"><title>gson</title>
<polygon fill="#fff4e5" stroke="#fff4e5" points="222.914,-216 168.914,-216 168.914,-180 222.914,-180 222.914,-216"/>
<text text-anchor="middle" x="195.914" y="-192.4" font-family="Times,serif" font-size="14.00">gson</text>
</g>
<!-- json -->
<g id="node2" class="node"><title>json</title>
<polygon fill="#f4ffcc" stroke="#f4ffcc" points="125.914,-126 71.9136,-126 71.9136,-90 125.914,-90 125.914,-126"/>
<text text-anchor="middle" x="98.9136" y="-102.4" font-family="Times,serif" font-size="14.00">json</text>
</g>
<!-- gson&#45;&gt;json -->
<g id="edge1" class="edge"><title>gson&#45;&gt;json</title>
<path fill="none" stroke="black" d="M168.867,-196.139C121.277,-193.992 25.651,-186.644 5.11672,-162 -14.1434,-138.885 27.835,-123.893 61.6971,-115.942"/>
<polygon fill="black" stroke="black" points="62.8569,-119.271 71.8687,-113.699 61.3496,-112.435 62.8569,-119.271"/>
<text text-anchor="middle" x="71.812" y="-147.4" font-family="Times,serif" font-size="14.00">encode/json.Unmarshal</text>
</g>
<!-- cbor -->
<g id="node3" class="node"><title>cbor</title>
<polygon fill="#704cff" stroke="#704cff" points="219.914,-36 165.914,-36 165.914,-0 219.914,-0 219.914,-36"/>
<text text-anchor="middle" x="192.914" y="-12.4" font-family="Times,serif" font-size="14.00">cbor</text>
</g>
<!-- gson&#45;&gt;cbor -->
<g id="edge3" class="edge"><title>gson&#45;&gt;cbor</title>
<path fill="none" stroke="black" d="M210.624,-179.925C214.402,-174.54 217.951,-168.334 219.914,-162 234.123,-116.151 235.401,-99.4327 219.914,-54 218.824,-50.8039 217.311,-47.6725 215.553,-44.678"/>
<polygon fill="black" stroke="black" points="218.264,-42.4426 209.72,-36.1774 212.492,-46.4032 218.264,-42.4426"/>
<text text-anchor="middle" x="266.709" y="-102.4" font-family="Times,serif" font-size="14.00">cbor.Encode</text>
</g>
<!-- json&#45;&gt;gson -->
<g id="edge2" class="edge"><title>json&#45;&gt;gson</title>
<path fill="none" stroke="black" d="M117.708,-126.05C132.319,-139.306 152.781,-157.869 169.109,-172.683"/>
<polygon fill="black" stroke="black" points="166.991,-175.487 176.75,-179.614 171.695,-170.303 166.991,-175.487"/>
<text text-anchor="middle" x="187.05" y="-147.4" font-family="Times,serif" font-size="14.00">gson.Parse</text>
</g>
<!-- json&#45;&gt;cbor -->
<g id="edge5" class="edge"><title>json&#45;&gt;cbor</title>
<path fill="none" stroke="black" d="M71.6141,-94.0137C53.6915,-83.7117 35.5288,-68.6548 47.0825,-54 60.3437,-37.1795 116.796,-27.5228 155.445,-22.7696"/>
<polygon fill="black" stroke="black" points="156.296,-26.1939 165.823,-21.557 155.484,-19.2412 156.296,-26.1939"/>
<text text-anchor="middle" x="89.3291" y="-57.4" font-family="Times,serif" font-size="14.00">cbor.ParseJson</text>
</g>
<!-- cbor&#45;&gt;gson -->
<g id="edge4" class="edge"><title>cbor&#45;&gt;gson</title>
<path fill="none" stroke="black" d="M220.106,-27.5642C247.109,-37.6918 286.993,-57.4224 304.914,-90 326.566,-129.363 271.822,-163.488 232.315,-182.069"/>
<polygon fill="black" stroke="black" points="230.81,-178.908 223.154,-186.232 233.706,-185.281 230.81,-178.908"/>
<text text-anchor="middle" x="344.095" y="-102.4" font-family="Times,serif" font-size="14.00">cbor.Decode</text>
</g>
<!-- cbor&#45;&gt;json -->
<g id="edge6" class="edge"><title>cbor&#45;&gt;json</title>
<path fill="none" stroke="black" d="M172.728,-36.2181C166.298,-41.8111 159.202,-48.0978 152.833,-54 143.054,-63.0608 132.548,-73.2741 123.43,-82.2993"/>
<polygon fill="black" stroke="black" points="120.764,-80.0149 116.145,-89.5497 125.702,-84.9766 120.764,-80.0149"/>
<text text-anchor="middle" x="186.454" y="-57.4" font-family="Times,serif" font-size="14.00">cbor.ToJson</text>
</g>
</g>
</svg>
