<?xml version="1.0" encoding="UTF-8" standalone="no"?>
<!DOCTYPE svg PUBLIC "-//W3C//DTD SVG 1.1//EN"
 "http://www.w3.org/Graphics/SVG/1.1/DTD/svg11.dtd">
<!-- Generated by graphviz version 2.34.0 (20140211.1544)
 -->
<!-- Title: value Pages: 1 -->
<svg width="275pt" height="57pt"
 viewBox="0.00 0.00 275.00 56.83" xmlns="http://www.w3.org/2000/svg" xmlns:xlink="http://www.w3.org/1999/xlink">
<g id="graph0" class="graph" transform="scale(1 1) rotate(0) translate(4 52.8259)">
<title>value</title>
<polygon fill="white" stroke="white" points="-4,4 -4,-52.8259 271,-52.8259 271,4 -4,4"/>
<!-- json -->
<g id="node1" class="node"><title>json</title>
<ellipse fill="yellow" stroke="yellow" cx="34" cy="-25.8259" rx="34.3346" ry="22.7556"/>
<text text-anchor="middle" x="34" y="-17.8259" font-family="Times,serif" font-size="20.00">json</text>
</g>
<!-- value -->
<g id="node2" class="node"><title>value</title>
<ellipse fill="yellow" stroke="yellow" cx="226" cy="-25.8259" rx="41.4091" ry="22.7556"/>
<text text-anchor="middle" x="226" y="-17.8259" font-family="Times,serif" font-size="20.00">value</text>
</g>
<!-- json&#45;&gt;value -->
<g id="edge1" class="edge"><title>json&#45;&gt;value</title>
<path fill="none" stroke="red" d="M68.7698,-25.8259C98.2478,-25.8259 140.945,-25.8259 174.409,-25.8259"/>
<polygon fill="red" stroke="red" points="174.473,-29.326 184.473,-25.8259 174.473,-22.326 174.473,-29.326"/>
<text text-anchor="middle" x="126.031" y="-32.0259" font-family="Times,serif" font-size="16.00"> &#160;JsonToValue &#160;</text>
</g>
<!-- value&#45;&gt;json -->
<g id="edge2" class="edge"><title>value&#45;&gt;json</title>
<path fill="none" stroke="red" d="M195.719,-10.3265C188.955,-7.55149 181.696,-5.08216 174.659,-3.62591 153.495,0.753946 98.4134,1.43598 77.4016,-3.62591 74.5475,-4.31349 71.67,-5.22232 68.8279,-6.27983"/>
<polygon fill="red" stroke="red" points="67.1885,-3.1749 59.3863,-10.3426 69.9554,-9.60489 67.1885,-3.1749"/>
<text text-anchor="middle" x="126.031" y="-6.82591" font-family="Times,serif" font-size="16.00"> &#160;ValueToJson &#160;</text>
</g>
</g>
</svg>
